<?xml version="1.0" encoding="UTF-8" standalone="no"?>
<!-- Created with Inkscape (http://www.inkscape.org/) -->

<svg
   xmlns:dc="http://purl.org/dc/elements/1.1/"
   xmlns:cc="http://creativecommons.org/ns#"
   xmlns:rdf="http://www.w3.org/1999/02/22-rdf-syntax-ns#"
   xmlns:svg="http://www.w3.org/2000/svg"
   xmlns="http://www.w3.org/2000/svg"
   xmlns:sodipodi="http://sodipodi.sourceforge.net/DTD/sodipodi-0.dtd"
   xmlns:inkscape="http://www.inkscape.org/namespaces/inkscape"
   width="15.875051mm"
   height="15.874968mm"
   viewBox="0 0 15.875051 15.874968"
   version="1.1"
   id="svg935"
   inkscape:version="0.92.4 5da689c313, 2019-01-14"
   sodipodi:docname="ball.svg"
   inkscape:export-filename="/home/tomas/Dokumenty/c/Arcade_Volleyball/ball.png"
   inkscape:export-xdpi="85"
   inkscape:export-ydpi="85">
  <defs
     id="defs929">
    <clipPath
       clipPathUnits="userSpaceOnUse"
       id="clipPath1546">
      <circle
         style="opacity:1;fill:#c3c3c3;fill-opacity:1;stroke:#0000d6;stroke-width:1.05833328;stroke-linecap:round;stroke-linejoin:round;stroke-miterlimit:4;stroke-dasharray:none;stroke-dashoffset:0;stroke-opacity:1"
         id="circle1548"
         cx="106.3058"
         cy="145.14806"
         r="29.954613" />
    </clipPath>
  </defs>
  <sodipodi:namedview
     id="base"
     pagecolor="#ffffff"
     bordercolor="#666666"
     borderopacity="1.0"
     inkscape:pageopacity="0.0"
     inkscape:pageshadow="2"
     inkscape:zoom="3.9539844"
     inkscape:cx="107.64989"
     inkscape:cy="107.99233"
     inkscape:document-units="px"
     inkscape:current-layer="layer1"
     showgrid="false"
     inkscape:window-width="1920"
     inkscape:window-height="1032"
     inkscape:window-x="-4"
     inkscape:window-y="-4"
     inkscape:window-maximized="1"
     fit-margin-top="0"
     fit-margin-left="0"
     fit-margin-right="0"
     fit-margin-bottom="0" />
  <metadata
     id="metadata932">
    <rdf:RDF>
      <cc:Work
         rdf:about="">
        <dc:format>image/svg+xml</dc:format>
        <dc:type
           rdf:resource="http://purl.org/dc/dcmitype/StillImage" />
        <dc:title></dc:title>
      </cc:Work>
    </rdf:RDF>
  </metadata>
  <g
     inkscape:label="Vrstva 1"
     inkscape:groupmode="layer"
     id="layer1"
     transform="translate(-141.3234,-157.36973)">
    <g
       id="g15"
       transform="matrix(0.27868237,0,0,0.27779693,101.93905,125.11785)"
       inkscape:export-xdpi="96.000198"
       inkscape:export-ydpi="96.000198">
      <circle
         r="28.409513"
         cy="144.58109"
         cx="169.80577"
         id="path1580"
         style="opacity:1;fill:#ffffff;fill-opacity:1;stroke:#000000;stroke-width:0.14564754;stroke-linecap:round;stroke-linejoin:round;stroke-miterlimit:4;stroke-dasharray:none;stroke-dashoffset:0;stroke-opacity:1" />
      <path
         sodipodi:nodetypes="ccsscsccccccccsccssccscscccsscccscc"
         style="fill:#dcba32;stroke-width:0.26458335"
         d="m 166.84608,172.89953 c -1.30081,-0.4061 -3.59343,-2.22003 -4.54941,-3.59951 -1.016,-1.46608 -1.99697,-4.93947 -1.99697,-7.07077 0,-2.04585 0.52656,-4.712 1.54111,-7.80319 0.69489,-2.11723 0.7215,-2.34442 0.35639,-3.04271 -0.97773,-1.86993 -7.46079,-9.88276 -7.996,-9.88276 -0.25194,0 -2.08138,5.70492 -2.67265,8.33438 -0.56822,2.52693 -0.48428,10.4346 0.132,12.43542 0.72756,2.36212 1.44236,4.28787 1.8102,4.87688 0.5972,0.95626 -0.0207,0.89923 -1.30027,-0.12002 -5.3049,-4.22563 -8.77822,-9.74098 -9.23595,-14.66595 -0.37146,-3.99684 2.04642,-10.7055 5.17624,-14.362 l 0.91999,-1.07479 -0.88956,-0.74264 c -0.48926,-0.40845 -1.67445,-1.0671 -2.63376,-1.46367 -0.95931,-0.39657 -1.83315,-0.79454 -1.94186,-0.88438 -0.2546,-0.2104 2.1444,-4.39836 3.53877,-6.17764 3.04506,-3.88567 5.87421,-6.12286 10.92541,-8.63943 3.28145,-1.63486 6.41529,-2.36625 11.02997,-2.57423 3.20776,-0.14457 3.39502,-0.12336 4.86886,0.55139 1.2528,0.57355 1.76208,0.67132 2.78791,0.53524 2.15228,-0.28551 5.45864,1.08461 9.64466,3.99663 3.67917,2.55943 4.41025,3.61409 1.56628,2.25951 -3.08624,-1.46996 -6.99024,-2.49904 -6.99024,-1.8426 0,0.1828 1.34026,1.71131 2.97835,3.39669 1.63808,1.68539 3.69191,4.00676 4.56406,5.15862 1.58413,2.09219 1.58765,2.09479 3.52558,2.61367 1.64831,0.44134 2.17464,0.73676 3.50198,1.96565 1.36344,1.26231 1.6372,1.68702 2.1525,3.33945 0.51674,1.65705 0.59007,2.47074 0.58788,6.52341 -0.002,4.20329 -0.0669,4.85601 -0.70028,7.07924 -1.51745,5.32592 -4.12557,9.56682 -8.38788,13.639 -4.07703,3.89518 -8.69792,6.22691 -14.27612,7.20383 -2.61261,0.45755 -6.6313,0.47619 -8.03719,0.0373 z"
         id="path1554"
         inkscape:connector-curvature="0" />
      <path
         style="fill:#0c1a68;stroke-width:0.26458335"
         d="m 168.10491,173.07037 c -1.50512,-0.33802 -2.37762,-0.75279 -3.57565,-1.69978 -0.72553,-0.57349 -1.31916,-1.12925 -1.31918,-1.235 -2e-5,-0.10576 2.17287,-0.19229 4.82865,-0.19229 3.59784,0 5.37232,-0.11749 6.96142,-0.46093 8.15681,-1.76285 15.00042,-5.8895 19.37533,-11.68321 0.75812,-1.00397 1.37839,-1.74472 1.37839,-1.6461 0,0.43271 -1.65066,3.36432 -2.85496,5.0705 -2.70077,3.82627 -7.40564,7.78985 -11.26356,9.4889 -4.1967,1.84825 -10.73011,2.98681 -13.53044,2.35791 z m -7.34219,-9.22597 c -0.33254,-0.3469 -0.22161,-3.6797 0.18612,-5.59161 0.2115,-0.99178 0.68775,-2.6873 1.05833,-3.76781 0.37058,-1.08052 0.67378,-2.15491 0.67378,-2.38755 0,-0.45676 -3.49578,-5.17606 -6.47062,-8.73533 -3.27977,-3.9241 -8.78448,-8.27611 -11.3914,-9.006 -0.65339,-0.18294 -1.18798,-0.47897 -1.18798,-0.65786 0,-0.51385 1.53581,-3.28007 2.86608,-5.16223 1.7056,-2.4132 3.46221,-4.23333 4.08559,-4.23333 0.73167,0 3.56849,1.92522 6.40979,4.35006 3.78922,3.23381 15.0242,14.05864 17.51208,16.87277 1.24948,1.41334 2.40432,2.61739 2.56631,2.67567 0.54655,0.19665 3.04633,-1.32623 5.5656,-3.39058 0.88257,-0.7232 1.21056,-1.18128 1.20879,-1.68823 -0.004,-1.0829 -2.58641,-6.16236 -5.06216,-9.95615 -4.80394,-7.36148 -9.94382,-12.3312 -15.23441,-14.73007 -0.94516,-0.42856 -1.67533,-0.82234 -1.62259,-0.87508 0.37458,-0.37458 4.36303,-1.00163 7.14534,-1.12337 3.32041,-0.14528 3.36141,-0.13992 5.02708,0.65706 1.92705,0.92206 4.78077,3.23699 8.51005,6.90335 2.73784,2.69166 6.18798,6.76737 6.87216,8.11822 0.34442,0.68003 0.64501,0.85151 1.97376,1.12596 2.0146,0.41611 4.15235,1.8899 5.20054,3.5853 0.78189,1.26467 0.78509,1.28606 0.46917,3.12839 -0.58262,3.3976 -2.9107,7.29599 -6.69022,11.20283 -5.15572,5.32941 -13.35697,9.64728 -22.85817,12.03459 -2.31288,0.58114 -6.49676,0.98092 -6.81302,0.651 z"
         id="path1552"
         inkscape:connector-curvature="0" />
    </g>
  </g>
</svg>
